<?xml version="1.0" encoding="utf-8"?>
<!-- Generator: Adobe Illustrator 16.0.4, SVG Export Plug-In . SVG Version: 6.00 Build 0)  -->
<!DOCTYPE svg PUBLIC "-//W3C//DTD SVG 1.1//EN" "http://www.w3.org/Graphics/SVG/1.1/DTD/svg11.dtd">
<svg version="1.1" id="Layer_1" xmlns="http://www.w3.org/2000/svg" xmlns:xlink="http://www.w3.org/1999/xlink" x="0px" y="0px"
	 width="72.5px" height="72px" viewBox="0 0 72.5 72" enable-background="new 0 0 72.5 72" xml:space="preserve">
<circle fill="#FFFFFF" cx="36.319" cy="36" r="34.875"/>
<g>
	<path fill="#0D111E" d="M51.029,14.131l0.857,5.277l-6.004,0.595c0.857,1.451,1.256,3.1,1.256,4.88
		c0,6.729-5.674,10.819-12.073,10.819c-0.792,0-1.583-0.066-2.376-0.199c-0.923,0.596-1.583,1.32-1.583,1.913
		c0,1.123,1.123,1.385,6.663,2.375l2.244,0.396c6.66,1.186,10.816,3.299,10.816,8.18c0,6.596-7.189,9.699-15.369,9.699
		c-8.181,0-14.711-2.574-14.711-8.115c0-3.232,2.242-5.74,6.663-8.113c-1.386-0.99-1.979-2.113-1.979-3.299
		c0-1.518,1.187-3.036,3.298-4.288c-3.495-1.715-5.871-5.081-5.871-9.368c0-6.795,5.674-10.951,12.072-10.951
		c3.167,0,5.936,0.925,8.114,2.639L51.029,14.131z M26.358,49.489c0,2.506,3.231,4.354,9.368,4.354c6.134,0,9.565-2.109,9.565-4.748
		c0-1.916-1.453-3.234-5.938-4.025l-3.761-0.66c-1.715-0.33-2.638-0.527-3.892-0.791C28.007,45.466,26.358,47.315,26.358,49.489z
		 M34.933,18.221c-3.958,0-6.398,3.035-6.398,6.861c0,3.628,2.506,6.465,6.398,6.465c4.024,0,6.532-2.969,6.532-6.729
		C41.465,21.058,38.824,18.221,34.933,18.221z"/>
</g>
</svg>
